<svg width="7" height="15" viewBox="0 0 7 15" fill="none" xmlns="http://www.w3.org/2000/svg">
<path d="M5.7 0.900098C5.85 0.900098 6 0.900098 6.3 0.900098V3.1501C6.15 3.1501 5.85 3.1501 5.55 3.1501C5.25 3.1501 4.95 3.1501 4.8 3.3001C4.65 3.4501 4.64999 3.6001 4.64999 3.9501C4.64999 4.2501 4.64999 4.4501 4.64999 4.7501H6.3V6.6501H4.64999V14.9001H2.10001V6.6001H0.75V4.7001H2.10001V4.0501C2.10001 2.9501 2.25 2.1501 2.55 1.8001C3 1.1501 3.9 0.850098 5.25 0.850098C5.4 0.900098 5.55 0.900098 5.7 0.900098Z" fill="#0C0C0C"/>
</svg>
